# Blender v2.72 (sub 0) OBJ File: 'carousel.blend'
# www.blender.org
v 0.000000 2.800000 0.000000
v 0.000000 4.376996 0.000000
v 0.000000 2.800000 -5.000000
v 0.000000 3.200000 -5.000000
v 0.975452 2.800000 -4.903926
v 0.975452 3.200000 -4.903926
v 1.913417 2.800000 -4.619398
v 1.913417 3.200000 -4.619398
v 2.777851 2.800000 -4.157348
v 2.777851 3.200000 -4.157348
v 3.535534 2.800000 -3.535534
v 3.535534 3.200000 -3.535534
v 4.157348 2.800000 -2.777851
v 4.157348 3.200000 -2.777851
v 4.619398 2.800000 -1.913417
v 4.619398 3.200000 -1.913417
v 4.903926 2.800000 -0.975452
v 4.903926 3.200000 -0.975452
v 5.000000 2.800000 -0.000000
v 5.000000 3.200000 -0.000000
v 4.903926 2.800000 0.975451
v 4.903926 3.200000 0.975451
v 4.619398 2.800000 1.913416
v 4.619398 3.200000 1.913416
v 4.157348 2.800000 2.777851
v 4.157348 3.200000 2.777851
v 3.535534 2.800000 3.535534
v 3.535534 3.200000 3.535534
v 2.777851 2.800000 4.157348
v 2.777851 3.200000 4.157348
v 1.913416 2.800000 4.619398
v 1.913416 3.200000 4.619398
v 0.975450 2.800000 4.903926
v 0.975450 3.200000 4.903926
v -0.000002 2.800000 5.000000
v -0.000002 3.200000 5.000000
v -0.975454 2.800000 4.903926
v -0.975454 3.200000 4.903926
v -1.913419 2.800000 4.619397
v -1.913419 3.200000 4.619397
v -2.777853 2.800000 4.157347
v -2.777853 3.200000 4.157347
v -3.535536 2.800000 3.535532
v -3.535536 3.200000 3.535532
v -4.157350 2.800000 2.777848
v -4.157350 3.200000 2.777848
v -4.619399 2.800000 1.913413
v -4.619399 3.200000 1.913413
v -4.903927 2.800000 0.975447
v -4.903927 3.200000 0.975447
v -5.000000 2.800000 -0.000005
v -5.000000 3.200000 -0.000005
v -4.903925 2.800000 -0.975457
v -4.903925 3.200000 -0.975457
v -4.619395 2.800000 -1.913422
v -4.619395 3.200000 -1.913422
v -4.157345 2.800000 -2.777856
v -4.157345 3.200000 -2.777856
v -3.535529 2.800000 -3.535538
v -3.535529 3.200000 -3.535538
v -2.777846 2.800000 -4.157352
v -2.777846 3.200000 -4.157352
v -1.913410 2.800000 -4.619401
v -1.913410 3.200000 -4.619401
v -0.975444 2.800000 -4.903928
v -0.975444 3.200000 -4.903928
v 0.000000 -2.800000 0.000000
v 0.000000 2.800000 0.000000
v 0.000000 -2.800000 -1.000000
v 0.000000 2.800000 -1.000000
v 0.195090 -2.800000 -0.980785
v 0.195090 2.800000 -0.980785
v 0.382683 -2.800000 -0.923880
v 0.382683 2.800000 -0.923880
v 0.555570 -2.800000 -0.831470
v 0.555570 2.800000 -0.831470
v 0.707107 -2.800000 -0.707107
v 0.707107 2.800000 -0.707107
v 0.831470 -2.800000 -0.555570
v 0.831470 2.800000 -0.555570
v 0.923880 -2.800000 -0.382683
v 0.923880 2.800000 -0.382683
v 0.980785 -2.800000 -0.195090
v 0.980785 2.800000 -0.195090
v 1.000000 -2.800000 -0.000000
v 1.000000 2.800000 -0.000000
v 0.980785 -2.800000 0.195090
v 0.980785 2.800000 0.195090
v 0.923880 -2.800000 0.382683
v 0.923880 2.800000 0.382683
v 0.831470 -2.800000 0.555570
v 0.831470 2.800000 0.555570
v 0.707107 -2.800000 0.707107
v 0.707107 2.800000 0.707107
v 0.555570 -2.800000 0.831470
v 0.555570 2.800000 0.831470
v 0.382683 -2.800000 0.923880
v 0.382683 2.800000 0.923880
v 0.195090 -2.800000 0.980785
v 0.195090 2.800000 0.980785
v -0.000000 -2.800000 1.000000
v -0.000000 2.800000 1.000000
v -0.195091 -2.800000 0.980785
v -0.195091 2.800000 0.980785
v -0.382684 -2.800000 0.923879
v -0.382684 2.800000 0.923879
v -0.555571 -2.800000 0.831469
v -0.555571 2.800000 0.831469
v -0.707107 -2.800000 0.707106
v -0.707107 2.800000 0.707106
v -0.831470 -2.800000 0.555570
v -0.831470 2.800000 0.555570
v -0.923880 -2.800000 0.382683
v -0.923880 2.800000 0.382683
v -0.980785 -2.800000 0.195089
v -0.980785 2.800000 0.195089
v -1.000000 -2.800000 -0.000001
v -1.000000 2.800000 -0.000001
v -0.980785 -2.800000 -0.195091
v -0.980785 2.800000 -0.195091
v -0.923879 -2.800000 -0.382684
v -0.923879 2.800000 -0.382684
v -0.831469 -2.800000 -0.555571
v -0.831469 2.800000 -0.555571
v -0.707106 -2.800000 -0.707108
v -0.707106 2.800000 -0.707108
v -0.555569 -2.800000 -0.831470
v -0.555569 2.800000 -0.831470
v -0.382682 -2.800000 -0.923880
v -0.382682 2.800000 -0.923880
v -0.195089 -2.800000 -0.980786
v -0.195089 2.800000 -0.980786
v 0.000000 -3.200000 -5.000000
v 0.000000 -2.800000 -5.000000
v 0.975452 -3.200000 -4.903926
v 0.975452 -2.800000 -4.903926
v 1.913417 -3.200000 -4.619398
v 1.913417 -2.800000 -4.619398
v 2.777851 -3.200000 -4.157348
v 2.777851 -2.800000 -4.157348
v 3.535534 -3.200000 -3.535534
v 3.535534 -2.800000 -3.535534
v 4.157348 -3.200000 -2.777851
v 4.157348 -2.800000 -2.777851
v 4.619398 -3.200000 -1.913417
v 4.619398 -2.800000 -1.913417
v 4.903926 -3.200000 -0.975452
v 4.903926 -2.800000 -0.975452
v 5.000000 -3.200000 -0.000000
v 5.000000 -2.800000 -0.000000
v 4.903926 -3.200000 0.975451
v 4.903926 -2.800000 0.975451
v 4.619398 -3.200000 1.913416
v 4.619398 -2.800000 1.913416
v 4.157348 -3.200000 2.777851
v 4.157348 -2.800000 2.777851
v 3.535534 -3.200000 3.535534
v 3.535534 -2.800000 3.535534
v 2.777851 -3.200000 4.157348
v 2.777851 -2.800000 4.157348
v 1.913416 -3.200000 4.619398
v 1.913416 -2.800000 4.619398
v 0.975450 -3.200000 4.903926
v 0.975450 -2.800000 4.903926
v -0.000002 -3.200000 5.000000
v -0.000002 -2.800000 5.000000
v -0.975454 -3.200000 4.903926
v -0.975454 -2.800000 4.903926
v -1.913419 -3.200000 4.619397
v -1.913419 -2.800000 4.619397
v -2.777853 -3.200000 4.157347
v -2.777853 -2.800000 4.157347
v -3.535536 -3.200000 3.535532
v -3.535536 -2.800000 3.535532
v -4.157350 -3.200000 2.777848
v -4.157350 -2.800000 2.777848
v -4.619399 -3.200000 1.913413
v -4.619399 -2.800000 1.913413
v -4.903927 -3.200000 0.975447
v -4.903927 -2.800000 0.975447
v -5.000000 -3.200000 -0.000005
v -5.000000 -2.800000 -0.000005
v -4.903925 -3.200000 -0.975457
v -4.903925 -2.800000 -0.975457
v -4.619395 -3.200000 -1.913422
v -4.619395 -2.800000 -1.913422
v -4.157345 -3.200000 -2.777856
v -4.157345 -2.800000 -2.777856
v -3.535529 -3.200000 -3.535538
v -3.535529 -2.800000 -3.535538
v -2.777846 -3.200000 -4.157352
v -2.777846 -2.800000 -4.157352
v -1.913410 -3.200000 -4.619401
v -1.913410 -2.800000 -4.619401
v -0.975444 -3.200000 -4.903928
v -0.975444 -2.800000 -4.903928
vn 0.000000 -1.000000 0.000000
vn 0.022600 0.973100 -0.229100
vn 0.098000 0.000000 -0.995200
vn 0.066800 0.973100 -0.220300
vn 0.290300 0.000000 -0.956900
vn 0.108500 0.973100 -0.203000
vn 0.471400 0.000000 -0.881900
vn 0.146000 0.973100 -0.177900
vn 0.634400 0.000000 -0.773000
vn 0.177900 0.973100 -0.146000
vn 0.773000 0.000000 -0.634400
vn 0.203000 0.973100 -0.108500
vn 0.881900 0.000000 -0.471400
vn 0.220300 0.973100 -0.066800
vn 0.956900 0.000000 -0.290300
vn 0.229100 0.973100 -0.022600
vn 0.995200 0.000000 -0.098000
vn 0.229100 0.973100 0.022600
vn 0.995200 0.000000 0.098000
vn 0.220300 0.973100 0.066800
vn 0.956900 0.000000 0.290300
vn 0.203000 0.973100 0.108500
vn 0.881900 0.000000 0.471400
vn 0.177900 0.973100 0.146000
vn 0.773000 0.000000 0.634400
vn 0.146000 0.973100 0.177900
vn 0.634400 0.000000 0.773000
vn 0.108500 0.973100 0.203000
vn 0.471400 0.000000 0.881900
vn 0.066800 0.973100 0.220300
vn 0.290300 0.000000 0.956900
vn 0.022600 0.973100 0.229100
vn 0.098000 0.000000 0.995200
vn -0.022600 0.973100 0.229100
vn -0.098000 0.000000 0.995200
vn -0.066800 0.973100 0.220300
vn -0.290300 0.000000 0.956900
vn -0.108500 0.973100 0.203000
vn -0.471400 0.000000 0.881900
vn -0.146000 0.973100 0.177900
vn -0.634400 0.000000 0.773000
vn -0.177900 0.973100 0.146000
vn -0.773000 0.000000 0.634400
vn -0.203000 0.973100 0.108500
vn -0.881900 0.000000 0.471400
vn -0.220300 0.973100 0.066800
vn -0.956900 0.000000 0.290300
vn -0.229100 0.973100 0.022600
vn -0.995200 0.000000 0.098000
vn -0.229100 0.973100 -0.022600
vn -0.995200 0.000000 -0.098000
vn -0.220300 0.973100 -0.066800
vn -0.956900 0.000000 -0.290300
vn -0.203000 0.973100 -0.108500
vn -0.881900 0.000000 -0.471400
vn -0.177900 0.973100 -0.146000
vn -0.773000 0.000000 -0.634400
vn -0.146000 0.973100 -0.177900
vn -0.634400 0.000000 -0.773000
vn -0.108500 0.973100 -0.203000
vn -0.471400 0.000000 -0.881900
vn -0.066800 0.973100 -0.220300
vn -0.290300 0.000000 -0.956900
vn -0.022600 0.973100 -0.229100
vn -0.098000 0.000000 -0.995200
vn 0.000000 1.000000 0.000000
s off
f 1//1 3//1 5//1
f 2//2 6//2 4//2
f 4//3 6//3 5//3
f 1//1 5//1 7//1
f 2//4 8//4 6//4
f 6//5 8//5 7//5
f 1//1 7//1 9//1
f 2//6 10//6 8//6
f 8//7 10//7 9//7
f 1//1 9//1 11//1
f 2//8 12//8 10//8
f 10//9 12//9 11//9
f 1//1 11//1 13//1
f 2//10 14//10 12//10
f 12//11 14//11 13//11
f 1//1 13//1 15//1
f 2//12 16//12 14//12
f 14//13 16//13 15//13
f 1//1 15//1 17//1
f 2//14 18//14 16//14
f 16//15 18//15 17//15
f 1//1 17//1 19//1
f 2//16 20//16 18//16
f 18//17 20//17 19//17
f 1//1 19//1 21//1
f 2//18 22//18 20//18
f 20//19 22//19 21//19
f 1//1 21//1 23//1
f 2//20 24//20 22//20
f 22//21 24//21 23//21
f 1//1 23//1 25//1
f 2//22 26//22 24//22
f 24//23 26//23 25//23
f 1//1 25//1 27//1
f 2//24 28//24 26//24
f 26//25 28//25 27//25
f 1//1 27//1 29//1
f 2//26 30//26 28//26
f 28//27 30//27 29//27
f 1//1 29//1 31//1
f 2//28 32//28 30//28
f 30//29 32//29 31//29
f 1//1 31//1 33//1
f 2//30 34//30 32//30
f 32//31 34//31 33//31
f 1//1 33//1 35//1
f 2//32 36//32 34//32
f 34//33 36//33 35//33
f 1//1 35//1 37//1
f 2//34 38//34 36//34
f 36//35 38//35 37//35
f 1//1 37//1 39//1
f 2//36 40//36 38//36
f 38//37 40//37 39//37
f 1//1 39//1 41//1
f 2//38 42//38 40//38
f 40//39 42//39 41//39
f 1//1 41//1 43//1
f 2//40 44//40 42//40
f 42//41 44//41 43//41
f 1//1 43//1 45//1
f 2//42 46//42 44//42
f 44//43 46//43 45//43
f 1//1 45//1 47//1
f 2//44 48//44 46//44
f 46//45 48//45 47//45
f 1//1 47//1 49//1
f 2//46 50//46 48//46
f 48//47 50//47 49//47
f 1//1 49//1 51//1
f 2//48 52//48 50//48
f 50//49 52//49 51//49
f 1//1 51//1 53//1
f 2//50 54//50 52//50
f 52//51 54//51 53//51
f 1//1 53//1 55//1
f 2//52 56//52 54//52
f 54//53 56//53 55//53
f 1//1 55//1 57//1
f 2//54 58//54 56//54
f 56//55 58//55 57//55
f 1//1 57//1 59//1
f 2//56 60//56 58//56
f 58//57 60//57 59//57
f 1//1 59//1 61//1
f 2//58 62//58 60//58
f 60//59 62//59 61//59
f 1//1 61//1 63//1
f 2//60 64//60 62//60
f 62//61 64//61 63//61
f 1//1 63//1 65//1
f 2//62 66//62 64//62
f 64//63 66//63 65//63
f 1//1 65//1 3//1
f 2//64 4//64 66//64
f 66//65 4//65 3//65
f 67//1 69//1 71//1
f 68//66 72//66 70//66
f 70//3 72//3 71//3
f 67//1 71//1 73//1
f 68//66 74//66 72//66
f 72//5 74//5 73//5
f 67//1 73//1 75//1
f 68//66 76//66 74//66
f 74//7 76//7 75//7
f 67//1 75//1 77//1
f 68//66 78//66 76//66
f 76//9 78//9 77//9
f 67//1 77//1 79//1
f 68//66 80//66 78//66
f 78//11 80//11 79//11
f 67//1 79//1 81//1
f 68//66 82//66 80//66
f 80//13 82//13 81//13
f 67//1 81//1 83//1
f 68//66 84//66 82//66
f 82//15 84//15 83//15
f 67//1 83//1 85//1
f 68//66 86//66 84//66
f 84//17 86//17 85//17
f 67//1 85//1 87//1
f 68//66 88//66 86//66
f 86//19 88//19 87//19
f 67//1 87//1 89//1
f 68//66 90//66 88//66
f 88//21 90//21 89//21
f 67//1 89//1 91//1
f 68//66 92//66 90//66
f 90//23 92//23 91//23
f 67//1 91//1 93//1
f 68//66 94//66 92//66
f 92//25 94//25 93//25
f 67//1 93//1 95//1
f 68//66 96//66 94//66
f 94//27 96//27 95//27
f 67//1 95//1 97//1
f 68//66 98//66 96//66
f 96//29 98//29 97//29
f 67//1 97//1 99//1
f 68//66 100//66 98//66
f 98//31 100//31 99//31
f 67//1 99//1 101//1
f 68//66 102//66 100//66
f 100//33 102//33 101//33
f 67//1 101//1 103//1
f 68//66 104//66 102//66
f 102//35 104//35 103//35
f 67//1 103//1 105//1
f 68//66 106//66 104//66
f 104//37 106//37 105//37
f 67//1 105//1 107//1
f 68//66 108//66 106//66
f 106//39 108//39 107//39
f 67//1 107//1 109//1
f 68//66 110//66 108//66
f 108//41 110//41 109//41
f 67//1 109//1 111//1
f 68//66 112//66 110//66
f 110//43 112//43 111//43
f 67//1 111//1 113//1
f 68//66 114//66 112//66
f 112//45 114//45 113//45
f 67//1 113//1 115//1
f 68//66 116//66 114//66
f 114//47 116//47 115//47
f 67//1 115//1 117//1
f 68//66 118//66 116//66
f 116//49 118//49 117//49
f 67//1 117//1 119//1
f 68//66 120//66 118//66
f 118//51 120//51 119//51
f 67//1 119//1 121//1
f 68//66 122//66 120//66
f 120//53 122//53 121//53
f 67//1 121//1 123//1
f 68//66 124//66 122//66
f 122//55 124//55 123//55
f 67//1 123//1 125//1
f 68//66 126//66 124//66
f 124//57 126//57 125//57
f 67//1 125//1 127//1
f 68//66 128//66 126//66
f 126//59 128//59 127//59
f 67//1 127//1 129//1
f 68//66 130//66 128//66
f 128//61 130//61 129//61
f 67//1 129//1 131//1
f 68//66 132//66 130//66
f 130//63 132//63 131//63
f 67//1 131//1 69//1
f 68//66 70//66 132//66
f 132//65 70//65 69//65
f 134//3 136//3 135//3
f 136//5 138//5 137//5
f 138//7 140//7 139//7
f 140//9 142//9 141//9
f 142//11 144//11 143//11
f 144//13 146//13 145//13
f 146//15 148//15 147//15
f 148//17 150//17 149//17
f 150//19 152//19 151//19
f 152//21 154//21 153//21
f 154//23 156//23 155//23
f 156//25 158//25 157//25
f 158//27 160//27 159//27
f 160//29 162//29 161//29
f 162//31 164//31 163//31
f 164//33 166//33 165//33
f 166//35 168//35 167//35
f 168//37 170//37 169//37
f 170//39 172//39 171//39
f 172//41 174//41 173//41
f 174//43 176//43 175//43
f 176//45 178//45 177//45
f 178//47 180//47 179//47
f 180//49 182//49 181//49
f 182//51 184//51 183//51
f 184//53 186//53 185//53
f 186//55 188//55 187//55
f 188//57 190//57 189//57
f 190//59 192//59 191//59
f 192//61 194//61 193//61
f 136//66 192//66 184//66
f 196//65 134//65 133//65
f 194//63 196//63 195//63
f 133//1 149//1 165//1
f 3//3 4//3 5//3
f 5//5 6//5 7//5
f 7//7 8//7 9//7
f 9//9 10//9 11//9
f 11//11 12//11 13//11
f 13//13 14//13 15//13
f 15//15 16//15 17//15
f 17//17 18//17 19//17
f 19//19 20//19 21//19
f 21//21 22//21 23//21
f 23//23 24//23 25//23
f 25//25 26//25 27//25
f 27//27 28//27 29//27
f 29//29 30//29 31//29
f 31//31 32//31 33//31
f 33//33 34//33 35//33
f 35//35 36//35 37//35
f 37//37 38//37 39//37
f 39//39 40//39 41//39
f 41//41 42//41 43//41
f 43//43 44//43 45//43
f 45//45 46//45 47//45
f 47//47 48//47 49//47
f 49//49 50//49 51//49
f 51//51 52//51 53//51
f 53//53 54//53 55//53
f 55//55 56//55 57//55
f 57//57 58//57 59//57
f 59//59 60//59 61//59
f 61//61 62//61 63//61
f 63//63 64//63 65//63
f 65//65 66//65 3//65
f 69//3 70//3 71//3
f 71//5 72//5 73//5
f 73//7 74//7 75//7
f 75//9 76//9 77//9
f 77//11 78//11 79//11
f 79//13 80//13 81//13
f 81//15 82//15 83//15
f 83//17 84//17 85//17
f 85//19 86//19 87//19
f 87//21 88//21 89//21
f 89//23 90//23 91//23
f 91//25 92//25 93//25
f 93//27 94//27 95//27
f 95//29 96//29 97//29
f 97//31 98//31 99//31
f 99//33 100//33 101//33
f 101//35 102//35 103//35
f 103//37 104//37 105//37
f 105//39 106//39 107//39
f 107//41 108//41 109//41
f 109//43 110//43 111//43
f 111//45 112//45 113//45
f 113//47 114//47 115//47
f 115//49 116//49 117//49
f 117//51 118//51 119//51
f 119//53 120//53 121//53
f 121//55 122//55 123//55
f 123//57 124//57 125//57
f 125//59 126//59 127//59
f 127//61 128//61 129//61
f 129//63 130//63 131//63
f 131//65 132//65 69//65
f 133//3 134//3 135//3
f 135//5 136//5 137//5
f 137//7 138//7 139//7
f 139//9 140//9 141//9
f 141//11 142//11 143//11
f 143//13 144//13 145//13
f 145//15 146//15 147//15
f 147//17 148//17 149//17
f 149//19 150//19 151//19
f 151//21 152//21 153//21
f 153//23 154//23 155//23
f 155//25 156//25 157//25
f 157//27 158//27 159//27
f 159//29 160//29 161//29
f 161//31 162//31 163//31
f 163//33 164//33 165//33
f 165//35 166//35 167//35
f 167//37 168//37 169//37
f 169//39 170//39 171//39
f 171//41 172//41 173//41
f 173//43 174//43 175//43
f 175//45 176//45 177//45
f 177//47 178//47 179//47
f 179//49 180//49 181//49
f 181//51 182//51 183//51
f 183//53 184//53 185//53
f 185//55 186//55 187//55
f 187//57 188//57 189//57
f 189//59 190//59 191//59
f 191//61 192//61 193//61
f 136//66 142//66 138//66
f 193//63 194//63 195//63
f 144//66 152//66 146//66
f 152//66 150//66 148//66
f 152//66 160//66 154//66
f 156//66 154//66 158//66
f 164//66 162//66 160//66
f 168//66 166//66 164//66
f 142//66 168//66 152//66
f 172//66 170//66 174//66
f 178//66 168//66 136//66
f 180//66 178//66 182//66
f 184//66 192//66 186//66
f 188//66 186//66 190//66
f 196//66 194//66 192//66
f 136//66 134//66 196//66
f 142//66 136//66 168//66
f 154//66 160//66 158//66
f 152//66 148//66 146//66
f 160//66 152//66 164//66
f 170//66 168//66 178//66
f 176//66 170//66 178//66
f 186//66 192//66 190//66
f 136//66 196//66 192//66
f 178//66 184//66 182//66
f 170//66 176//66 174//66
f 142//66 140//66 138//66
f 195//65 196//65 133//65
f 152//66 168//66 164//66
f 184//66 178//66 136//66
f 144//66 142//66 152//66
f 133//1 189//1 195//1
f 189//1 191//1 193//1
f 185//1 187//1 189//1
f 181//1 183//1 185//1
f 177//1 179//1 181//1
f 173//1 175//1 177//1
f 169//1 171//1 173//1
f 173//1 189//1 169//1
f 165//1 157//1 163//1
f 161//1 163//1 159//1
f 153//1 155//1 157//1
f 149//1 151//1 153//1
f 145//1 147//1 149//1
f 145//1 133//1 143//1
f 141//1 133//1 139//1
f 137//1 139//1 135//1
f 163//1 157//1 159//1
f 181//1 185//1 189//1
f 173//1 177//1 181//1
f 189//1 167//1 169//1
f 189//1 193//1 195//1
f 149//1 153//1 157//1
f 149//1 133//1 145//1
f 139//1 133//1 135//1
f 133//1 167//1 189//1
f 149//1 157//1 165//1
f 133//1 141//1 143//1
f 173//1 181//1 189//1
f 165//1 167//1 133//1
